<svg width="34" height="34" viewBox="0 0 34 34" fill="none" xmlns="http://www.w3.org/2000/svg">
<g filter="url(#filter0_d_13_672)">
<circle cx="17" cy="17" r="15" fill="url(#paint0_linear_13_672)"/>
</g>
<path fill-rule="evenodd" clip-rule="evenodd" d="M22.9662 11.0338C22.234 10.3016 21.0468 10.3016 20.3146 11.0338L17 14.3484L13.6854 11.0338C12.9532 10.3016 11.766 10.3016 11.0338 11.0338C10.3016 11.7661 10.3016 12.9533 11.0338 13.6855L14.3483 17.0001L11.0338 20.3146C10.3016 21.0468 10.3016 22.234 11.0338 22.9663C11.766 23.6985 12.9532 23.6985 13.6854 22.9663L17 19.6517L20.3146 22.9663C21.0468 23.6985 22.234 23.6985 22.9662 22.9663C23.6984 22.234 23.6984 21.0468 22.9662 20.3146L19.6517 17.0001L22.9662 13.6855C23.6984 12.9533 23.6984 11.7661 22.9662 11.0338Z" fill="url(#paint1_linear_13_672)"/>
<defs>
<filter id="filter0_d_13_672" x="0" y="0" width="34" height="34" filterUnits="userSpaceOnUse" color-interpolation-filters="sRGB">
<feFlood flood-opacity="0" result="BackgroundImageFix"/>
<feColorMatrix in="SourceAlpha" type="matrix" values="0 0 0 0 0 0 0 0 0 0 0 0 0 0 0 0 0 0 127 0" result="hardAlpha"/>
<feOffset/>
<feGaussianBlur stdDeviation="1"/>
<feColorMatrix type="matrix" values="0 0 0 0 0.475204 0 0 0 0 0.475204 0 0 0 0 0.475204 0 0 0 0.5 0"/>
<feBlend mode="normal" in2="BackgroundImageFix" result="effect1_dropShadow_13_672"/>
<feBlend mode="normal" in="SourceGraphic" in2="effect1_dropShadow_13_672" result="shape"/>
</filter>
<linearGradient id="paint0_linear_13_672" x1="-0.976982" y1="-3.95396" x2="-0.976982" y2="32" gradientUnits="userSpaceOnUse">
<stop stop-color="#F5F4FF"/>
<stop offset="1" stop-color="#D2E7FF"/>
</linearGradient>
<linearGradient id="paint1_linear_13_672" x1="26.8871" y1="32.4446" x2="43.0472" y2="4.38714" gradientUnits="userSpaceOnUse">
<stop stop-color="#2B17E4"/>
<stop offset="0.529904" stop-color="#5937B9"/>
<stop offset="1" stop-color="#C86DD7"/>
</linearGradient>
</defs>
</svg>
